<?xml version="1.0" encoding="UTF-8" standalone="no"?><!DOCTYPE svg PUBLIC "-//W3C//DTD SVG 1.1//EN" "http://www.w3.org/Graphics/SVG/1.1/DTD/svg11.dtd"><svg width="100%" height="100%" viewBox="0 0 1035 886" version="1.1" xmlns="http://www.w3.org/2000/svg" xmlns:xlink="http://www.w3.org/1999/xlink" xml:space="preserve" xmlns:serif="http://www.serif.com/" style="fill-rule:evenodd;clip-rule:evenodd;stroke-linejoin:round;stroke-miterlimit:2;"><g id="Layer-1" serif:id="Layer 1"><path id="path8490" d="M243.35,0.042c2.821,0.062 5.617,0.183 8.464,0.391l629.291,46.092c91.092,6.67 159.275,85.746 152.604,176.825l-26.041,356.121c-4.555,62.2 -42.846,113.725 -95.704,138.021l-45.055,23.958c-13.382,8.278 -153.163,-16.016 -168.813,-12.108l-41.279,22.438l-159.178,85.74c0,-0 -19.921,-70.103 -69.792,-108.178l-278.25,13.408c-85.688,-2.948 -152.429,-74.337 -149.479,-160.025l12.37,-356.9c1.318,-38.326 16.239,-72.77 40.104,-98.958l0.521,-0.521c4.393,-4.775 38.503,-43.671 58.462,-65.366c0.109,-0.117 0.284,-0.275 0.392,-0.392c31.219,-38.106 78.925,-61.729 131.379,-60.546l0.004,-0Zm-0.521,20.703c-76.708,-1.762 -141.466,56.425 -147.133,133.854l-26.042,356.25c-5.852,79.929 50.224,146.595 130.161,152.445l463.969,35.704l3.255,0.262l-204.058,-16.991l49.251,112.527c40.986,-17.747 91.58,-50.748 144.585,-95.536l84.326,6.637c79.941,5.853 239.836,-47.921 245.686,-127.862l26.041,-356.25c5.854,-79.942 -51.836,-146.875 -131.765,-152.729l-630.86,-47.921c-2.497,-0.184 -4.947,-0.334 -7.421,-0.392l0.005,0.002Z" style="fill:#202027;fill-rule:nonzero;"/><path d="M512.19,794.72l37.431,-18.774l43.52,-26.96l41.738,-30.084l34.349,-27.561l-209.185,-16.352l52.147,119.731Z" style="fill:#ffbd00;"/><path d="M93.987,153.091c6.302,-80.074 76.428,-139.968 156.502,-133.666l632.856,49.807c80.074,6.302 139.968,76.429 133.666,156.503l-27.837,353.7c-6.302,80.074 -76.428,139.967 -156.502,133.665l-632.857,-49.806c-80.074,-6.302 -139.967,-76.429 -133.665,-156.503l27.837,-353.7Z" style="fill:#ffbd00;"/></g></svg>