<?xml version="1.0" encoding="UTF-8" standalone="no"?><!DOCTYPE svg PUBLIC "-//W3C//DTD SVG 1.1//EN" "http://www.w3.org/Graphics/SVG/1.1/DTD/svg11.dtd"><svg width="100%" height="100%" viewBox="0 0 1035 886" version="1.1" xmlns="http://www.w3.org/2000/svg" xmlns:xlink="http://www.w3.org/1999/xlink" xml:space="preserve" xmlns:serif="http://www.serif.com/" style="fill-rule:evenodd;clip-rule:evenodd;stroke-linejoin:round;stroke-miterlimit:2;"><g id="Layer-1" serif:id="Layer 1"><path id="path8490" d="M243.35,0.042c2.821,0.062 5.617,0.183 8.464,0.391l629.291,46.092c91.092,6.67 159.275,85.746 152.604,176.825l-26.041,356.121c-4.555,62.2 -42.846,113.725 -95.704,138.021l-45.055,23.958c-13.382,8.278 -28.1,14.451 -43.75,18.359l-6.51,90.104l-39.323,35.677c0,0 -116.275,-88.879 -166.146,-126.954l-461.583,-15.886c-85.688,-2.948 -152.429,-74.337 -149.479,-160.025l12.37,-356.9c1.318,-38.326 16.239,-72.77 40.104,-98.958l0.521,-0.521c4.393,-4.775 38.503,-43.671 58.462,-65.366c0.109,-0.117 0.284,-0.275 0.392,-0.392c31.219,-38.106 78.925,-61.729 131.379,-60.546l0.004,-0Zm-0.521,20.703c-76.708,-1.762 -141.466,56.425 -147.133,133.854l-26.042,356.25c-5.852,79.929 50.224,146.595 130.161,152.445l463.969,35.704l3.255,0.262l2.604,2.084l129.167,106.771l7.161,-98.7l26.433,1.953c79.941,5.853 148.575,-53.392 154.425,-133.333l26.041,-356.25c5.854,-79.942 -51.836,-146.875 -131.765,-152.729l-630.86,-47.921c-2.497,-0.184 -4.947,-0.334 -7.421,-0.392l0.005,0.002Z" style="fill:#202027;fill-rule:nonzero;"/><path d="M819.832,687.094l-168.578,-0l147.556,121.021l21.022,-121.021Z" style="fill:#ffbd00;"/><path d="M93.987,153.091c6.302,-80.074 76.428,-139.968 156.502,-133.666l632.856,49.807c80.074,6.302 139.968,76.429 133.666,156.503l-27.837,353.7c-6.302,80.074 -76.428,139.967 -156.502,133.665l-632.857,-49.806c-80.074,-6.302 -139.967,-76.429 -133.665,-156.503l27.837,-353.7Z" style="fill:#ffbd00;"/></g></svg>