<?xml version="1.0" encoding="UTF-8" standalone="no"?><!DOCTYPE svg PUBLIC "-//W3C//DTD SVG 1.1//EN" "http://www.w3.org/Graphics/SVG/1.1/DTD/svg11.dtd"><svg width="100%" height="100%" viewBox="0 0 1035 886" version="1.1" xmlns="http://www.w3.org/2000/svg" xmlns:xlink="http://www.w3.org/1999/xlink" xml:space="preserve" xmlns:serif="http://www.serif.com/" style="fill-rule:evenodd;clip-rule:evenodd;stroke-linejoin:round;stroke-miterlimit:2;"><g id="Layer-1" serif:id="Layer 1"><path id="path8490" d="M790.833,0.042c-2.821,0.062 -5.617,0.183 -8.463,0.391l-629.292,46.092c-91.091,6.67 -159.275,85.746 -152.604,176.825l26.042,356.121c4.554,62.2 42.846,113.725 95.704,138.021l45.054,23.958c13.382,8.278 28.101,14.451 43.75,18.359l6.51,90.104l39.324,35.677c-0,0 116.275,-88.879 166.145,-126.954l461.584,-15.886c85.687,-2.948 152.429,-74.337 149.479,-160.025l-12.37,-356.9c-1.318,-38.326 -16.24,-72.77 -40.104,-98.958l-0.521,-0.521c-4.393,-4.775 -38.503,-43.671 -58.463,-65.366c-0.108,-0.117 -0.283,-0.275 -0.391,-0.392c-31.22,-38.106 -78.925,-61.729 -131.379,-60.546l-0.005,-0Zm0.521,20.703c76.708,-1.762 141.467,56.425 147.134,133.854l26.041,356.25c5.853,79.929 -50.223,146.595 -130.161,152.445l-463.968,35.704l-3.255,0.262l-2.605,2.084l-129.166,106.771l-7.161,-98.7l-26.433,1.953c-79.942,5.853 -148.575,-53.392 -154.425,-133.333l-26.042,-356.25c-5.853,-79.942 51.836,-146.875 131.765,-152.729l630.86,-47.921c2.498,-0.184 4.947,-0.334 7.422,-0.392l-0.006,0.002Z" style="fill:#202027;fill-rule:nonzero;"/><path d="M214.352,687.094l168.578,-0l-147.556,121.021l-21.022,-121.021Z" style="fill:#ffbd00;"/><path d="M940.197,153.091c-6.302,-80.074 -76.428,-139.968 -156.502,-133.666l-632.857,49.807c-80.074,6.302 -139.967,76.429 -133.665,156.503l27.836,353.7c6.302,80.074 76.429,139.967 156.503,133.665l632.856,-49.806c80.074,-6.302 139.968,-76.429 133.666,-156.503l-27.837,-353.7Z" style="fill:#ffbd00;"/></g></svg>